<svg width="28" height="24" viewBox="0 0 28 24" fill="none" xmlns="http://www.w3.org/2000/svg">
<path d="M21.2222 23C21.2222 20.5699 17.9887 18.6 14 18.6C10.0113 18.6 6.77778 20.5699 6.77778 23M27 18.6006C27 16.7963 25.2174 15.2456 22.6667 14.5667M1 18.6006C1 16.7963 2.78259 15.2456 5.33333 14.5667M22.6667 8.67961C23.5531 7.87396 24.1111 6.70313 24.1111 5.4C24.1111 2.96995 22.1711 1 19.7778 1C18.6679 1 17.6556 1.42365 16.8889 2.12037M5.33333 8.67961C4.44681 7.87396 3.88889 6.70313 3.88889 5.4C3.88889 2.96995 5.82899 1 8.22222 1C9.33206 1 10.3445 1.42365 11.1111 2.12037M14 14.2C11.6067 14.2 9.66667 12.2301 9.66667 9.8C9.66667 7.36995 11.6067 5.4 14 5.4C16.3933 5.4 18.3333 7.36995 18.3333 9.8C18.3333 12.2301 16.3933 14.2 14 14.2Z" stroke="white" stroke-width="2" stroke-linecap="round" stroke-linejoin="round"/>
</svg>
